<svg width="77" height="155" viewBox="0 0 77 155" fill="none" xmlns="http://www.w3.org/2000/svg">
<mask id="path-1-outside-1_1_2" maskUnits="userSpaceOnUse" x="-0.742188" y="-0.399994" width="78" height="156" fill="black">
<rect fill="white" x="-0.742188" y="-0.399994" width="78" height="156"/>
<path d="M66.2 0.999999C69.2 0.999999 72.6 1.6 72.6 5.2C72.6 8.6 69.6 10.8 69.4 12.4C68 28.6 69.6 46 69.6 62.4C69.6 71 68.6 79.6 68.6 88C68.6 94.6 69.4 101 69.4 107.6C69.4 112.6 68.6 117.8 68.6 122.8C68.6 128.6 69.2 135.8 70.2 141.6C70.4 143.6 75.4 148.4 75.6 151L74.6 152C64.6 152 54.6 153.8 44.4 153.8C43 153.8 38.4 154.4 38.4 152.4C38.4 148 43.8 142 43.8 137.2C43.8 128.6 41 120.4 38.2 112.4C36.6 107.2 36.6 101.6 34.6 96.4C33.4 93.4 31.8 90.4 30.8 87.2C28.8 79.6 28.8 73 24.6 66.2V69.4C24.6 77 22.8 84.4 22.8 92C22.8 96.2 25 100 25 104.4V114.8C26.6 118.6 27.4 122.6 27.2 126.8L27.8 128.4C28.8 129.4 32.6 133 32.6 134.4C32.6 137.6 24 137.6 21.6 137.6H5C4.6 137.2 4.4 136.6 4.4 136C4.4 131.8 10.4 128.2 10.4 121C10.4 115 8.4 109.2 8.4 103.2C8.4 90.4 11.4 76 11.4 62.2C11.4 52 10.4 41.8 8.4 32C8 29.2 3 25 1 23.2V22.6C1 21.2 5 20.6 6 20.4C15.6 18 25 14.8 34.8 14.8L36.2 15.8C36.2 28.8 37.8 22.6 40.8 31.4C43 37.6 46.2 44.8 46.8 51.4C47 55.2 47 58.6 48.2 62.2C49.2 65 50.6 68 51.2 70.8C52.6 79.2 54.8 92.4 58.2 99.8V96C58.2 83.2 56.2 70.8 56.2 58C56.2 55.4 55.2 52.6 55.2 50.2V35.8C55.2 31.6 53 27.8 53 23.8C53 21.2 54.6 18.4 54.6 15.8C54.6 11 45.8 9.8 45.6 5.8C46.6 3.6 63.4 0.999999 66.2 0.999999Z"/>
</mask>
<g filter="url(#filter0_i_1_2)">
<path d="M66.2 0.999999C69.2 0.999999 72.6 1.6 72.6 5.2C72.6 8.6 69.6 10.8 69.4 12.4C68 28.6 69.6 46 69.6 62.4C69.6 71 68.6 79.6 68.6 88C68.6 94.6 69.4 101 69.4 107.6C69.4 112.6 68.6 117.8 68.6 122.8C68.6 128.6 69.2 135.8 70.2 141.6C70.4 143.6 75.4 148.4 75.6 151L74.6 152C64.6 152 54.6 153.8 44.4 153.8C43 153.8 38.4 154.4 38.4 152.4C38.4 148 43.8 142 43.8 137.2C43.8 128.6 41 120.4 38.2 112.4C36.6 107.2 36.6 101.6 34.6 96.4C33.4 93.4 31.8 90.4 30.8 87.2C28.8 79.6 28.8 73 24.6 66.2V69.4C24.6 77 22.8 84.4 22.8 92C22.8 96.2 25 100 25 104.4V114.8C26.6 118.6 27.4 122.6 27.2 126.8L27.8 128.4C28.8 129.4 32.6 133 32.6 134.4C32.6 137.6 24 137.6 21.6 137.6H5C4.6 137.2 4.4 136.6 4.4 136C4.4 131.8 10.4 128.2 10.4 121C10.4 115 8.4 109.2 8.4 103.2C8.4 90.4 11.4 76 11.4 62.2C11.4 52 10.4 41.8 8.4 32C8 29.2 3 25 1 23.2V22.6C1 21.2 5 20.6 6 20.4C15.6 18 25 14.8 34.8 14.8L36.2 15.8C36.2 28.8 37.8 22.6 40.8 31.4C43 37.6 46.2 44.8 46.8 51.4C47 55.2 47 58.6 48.2 62.2C49.2 65 50.6 68 51.2 70.8C52.6 79.2 54.8 92.4 58.2 99.8V96C58.2 83.2 56.2 70.8 56.2 58C56.2 55.4 55.2 52.6 55.2 50.2V35.8C55.2 31.6 53 27.8 53 23.8C53 21.2 54.6 18.4 54.6 15.8C54.6 11 45.8 9.8 45.6 5.8C46.6 3.6 63.4 0.999999 66.2 0.999999Z" fill="#C50004"/>
</g>
<path d="M69.4 12.4L68.4077 12.276L68.4054 12.2949L68.4037 12.3139L69.4 12.4ZM70.2 141.6L71.195 141.5L71.1915 141.465L71.1855 141.43L70.2 141.6ZM75.6 151L76.3071 151.707L76.6323 151.382L76.5971 150.923L75.6 151ZM74.6 152V153H75.0142L75.3071 152.707L74.6 152ZM38.2 112.4L37.2442 112.694L37.2498 112.712L37.2561 112.73L38.2 112.4ZM34.6 96.4L35.5334 96.041L35.5285 96.0286L34.6 96.4ZM30.8 87.2L29.8329 87.4545L29.8387 87.4765L29.8455 87.4983L30.8 87.2ZM24.6 66.2L25.4508 65.6745L23.6 62.678V66.2H24.6ZM25 114.8H24V115.002L24.0784 115.188L25 114.8ZM27.2 126.8L26.2011 126.752L26.1913 126.958L26.2637 127.151L27.2 126.8ZM27.8 128.4L26.8637 128.751L26.9397 128.954L27.0929 129.107L27.8 128.4ZM5 137.6L4.29289 138.307L4.58579 138.6H5V137.6ZM8.4 32L7.41005 32.1414L7.41425 32.1708L7.4202 32.2L8.4 32ZM1 23.2H1.41561e-07V23.6454L0.331035 23.9433L1 23.2ZM6 20.4L6.19611 21.3806L6.21945 21.3759L6.24254 21.3701L6 20.4ZM34.8 14.8L35.3812 13.9863L35.1205 13.8H34.8V14.8ZM36.2 15.8H37.2V15.2854L36.7812 14.9863L36.2 15.8ZM40.8 31.4L39.8534 31.7227L39.8576 31.7344L40.8 31.4ZM46.8 51.4L47.7986 51.3474L47.7976 51.3284L47.7959 51.3095L46.8 51.4ZM48.2 62.2L47.2513 62.5162L47.2547 62.5263L47.2583 62.5363L48.2 62.2ZM51.2 70.8L52.1864 70.6356L52.1826 70.6129L52.1778 70.5905L51.2 70.8ZM58.2 99.8L57.2913 100.218L59.2 99.8H58.2ZM45.6 5.8L44.6896 5.38619L44.5891 5.60733L44.6012 5.84993L45.6 5.8ZM66.2 0.999999V2C67.6703 2 69.0759 2.15374 70.0851 2.64806C70.5717 2.8864 70.9363 3.18978 71.1834 3.56999C71.4283 3.94674 71.6 4.46334 71.6 5.2H72.6H73.6C73.6 4.13667 73.3467 3.22826 72.8603 2.48001C72.3762 1.73523 71.7033 1.21361 70.9649 0.851938C69.5241 0.146263 67.7297 -1.43051e-06 66.2 -1.43051e-06V0.999999ZM72.6 5.2H71.6C71.6 6.59817 70.9864 7.7931 70.2402 8.9244C70.0546 9.20579 69.867 9.47454 69.6794 9.74427C69.4953 10.0091 69.3085 10.2786 69.1416 10.5398C68.8263 11.0336 68.4878 11.6352 68.4077 12.276L69.4 12.4L70.3923 12.524C70.4122 12.3648 70.5237 12.0914 70.8271 11.6164C70.9697 11.3933 71.1344 11.155 71.3214 10.8862C71.5049 10.6223 71.7079 10.3317 71.9098 10.0256C72.7136 8.8069 73.6 7.20183 73.6 5.2H72.6ZM69.4 12.4L68.4037 12.3139C66.9997 28.5602 68.6 46.1397 68.6 62.4H69.6H70.6C70.6 45.8603 69.0003 28.6398 70.3963 12.4861L69.4 12.4ZM69.6 62.4H68.6C68.6 66.666 68.352 70.9371 68.1017 75.2166C67.852 79.4861 67.6 83.7657 67.6 88H68.6H69.6C69.6 83.8343 69.848 79.6139 70.0983 75.3334C70.348 71.0629 70.6 66.734 70.6 62.4H69.6ZM68.6 88H67.6C67.6 91.3358 67.8022 94.6162 68.0019 97.8614C68.2022 101.116 68.4 104.336 68.4 107.6H69.4H70.4C70.4 104.264 70.1978 100.984 69.9981 97.7386C69.7978 94.4838 69.6 91.2642 69.6 88H68.6ZM69.4 107.6H68.4C68.4 110.054 68.2036 112.565 68.0031 115.122C67.8036 117.665 67.6 120.254 67.6 122.8H68.6H69.6C69.6 120.346 69.7964 117.835 69.9969 115.278C70.1964 112.735 70.4 110.146 70.4 107.6H69.4ZM68.6 122.8H67.6C67.6 128.656 68.2047 135.913 69.2145 141.77L70.2 141.6L71.1855 141.43C70.1954 135.687 69.6 128.544 69.6 122.8H68.6ZM70.2 141.6L69.205 141.7C69.2466 142.116 69.4015 142.53 69.5786 142.902C69.7609 143.284 69.9989 143.686 70.2607 144.091C70.7808 144.893 71.4551 145.795 72.0932 146.666C72.7447 147.555 73.3672 148.425 73.8389 149.224C74.3277 150.052 74.5717 150.671 74.6029 151.077L75.6 151L76.5971 150.923C76.5283 150.029 76.0723 149.073 75.5611 148.207C75.0329 147.312 74.3553 146.37 73.7068 145.484C73.0449 144.58 72.4192 143.744 71.9393 143.003C71.7011 142.635 71.5141 142.314 71.3839 142.041C71.2485 141.757 71.2034 141.584 71.195 141.5L70.2 141.6ZM75.6 151L74.8929 150.293L73.8929 151.293L74.6 152L75.3071 152.707L76.3071 151.707L75.6 151ZM74.6 152V151C69.5477 151 64.5027 151.455 59.4858 151.904C54.454 152.355 49.4481 152.8 44.4 152.8V153.8V154.8C49.5519 154.8 54.646 154.345 59.6642 153.896C64.6973 153.445 69.6524 153 74.6 153V152ZM44.4 153.8V152.8C44.0258 152.8 43.4093 152.84 42.8321 152.863C42.215 152.888 41.5545 152.898 40.9503 152.853C40.3248 152.806 39.8623 152.704 39.5854 152.567C39.3553 152.453 39.4 152.405 39.4 152.4H38.4H37.4C37.4 153.395 38.0197 154.022 38.6959 154.358C39.3252 154.671 40.1002 154.794 40.7997 154.847C41.5205 154.902 42.2725 154.887 42.9116 154.862C43.5907 154.835 44.0742 154.8 44.4 154.8V153.8ZM38.4 152.4H39.4C39.4 151.489 39.683 150.429 40.1713 149.218C40.6575 148.011 41.3095 146.742 41.991 145.404C42.6628 144.085 43.3612 142.704 43.8887 141.343C44.4151 139.984 44.8 138.577 44.8 137.2H43.8H42.8C42.8 138.223 42.5099 139.366 42.0238 140.62C41.5388 141.871 40.8872 143.165 40.209 144.496C39.5405 145.808 38.8425 147.164 38.3162 148.47C37.792 149.771 37.4 151.111 37.4 152.4H38.4ZM43.8 137.2H44.8C44.8 128.404 41.9363 120.048 39.1439 112.07L38.2 112.4L37.2561 112.73C40.0637 120.752 42.8 128.796 42.8 137.2H43.8ZM38.2 112.4L39.1558 112.106C38.3802 109.585 37.9914 106.966 37.5364 104.236C37.0862 101.534 36.5733 98.7449 35.5333 96.041L34.6 96.4L33.6667 96.759C34.6267 99.2551 35.1138 101.866 35.5636 104.564C36.0086 107.234 36.4198 110.015 37.2442 112.694L38.2 112.4ZM34.6 96.4L35.5285 96.0286C34.9195 94.5062 34.2034 92.9704 33.5394 91.4703C32.8681 89.9535 32.237 88.4456 31.7545 86.9017L30.8 87.2L29.8455 87.4983C30.363 89.1544 31.0319 90.7465 31.7106 92.2797C32.3966 93.8296 33.0805 95.2938 33.6715 96.7714L34.6 96.4ZM30.8 87.2L31.7671 86.9455C31.2758 85.0785 30.9058 83.2673 30.5599 81.4789C30.2159 79.6997 29.8925 77.9251 29.5007 76.1808C28.7129 72.6739 27.6316 69.2053 25.4508 65.6745L24.6 66.2L23.7492 66.7255C25.7684 69.9947 26.7871 73.2261 27.5493 76.6192C27.9325 78.3249 28.2466 80.0503 28.5963 81.8586C28.9442 83.6577 29.3242 85.5215 29.8329 87.4545L30.8 87.2ZM24.6 66.2H23.6V69.4H24.6H25.6V66.2H24.6ZM24.6 69.4H23.6C23.6 73.1303 23.1583 76.8211 22.7071 80.5809C22.2583 84.3211 21.8 88.1303 21.8 92H22.8H23.8C23.8 88.2697 24.2417 84.5789 24.6929 80.8191C25.1417 77.0789 25.6 73.2697 25.6 69.4H24.6ZM22.8 92H21.8C21.8 94.2565 22.3917 96.3869 22.935 98.3871C23.4892 100.428 24 102.353 24 104.4H25H26C26 102.047 25.4108 99.8722 24.865 97.8629C24.3083 95.8131 23.8 93.9435 23.8 92H22.8ZM25 104.4H24V114.8H25H26V104.4H25ZM25 114.8L24.0784 115.188C25.6258 118.863 26.3934 122.715 26.2011 126.752L27.2 126.8L28.1989 126.848C28.4066 122.485 27.5742 118.337 25.9216 114.412L25 114.8ZM27.2 126.8L26.2637 127.151L26.8637 128.751L27.8 128.4L28.7363 128.049L28.1363 126.449L27.2 126.8ZM27.8 128.4L27.0929 129.107C27.613 129.627 28.7794 130.744 29.8302 131.917C30.3554 132.504 30.8273 133.077 31.1622 133.573C31.3297 133.82 31.4491 134.028 31.5234 134.193C31.6041 134.371 31.6 134.43 31.6 134.4H32.6H33.6C33.6 134.02 33.4772 133.66 33.3461 133.37C33.2087 133.065 33.0234 132.755 32.819 132.452C32.4102 131.848 31.8696 131.196 31.3198 130.583C30.2206 129.356 28.987 128.173 28.5071 127.693L27.8 128.4ZM32.6 134.4H31.6C31.6 134.658 31.4533 134.992 30.7482 135.368C30.0494 135.74 29.0276 136.019 27.8389 136.213C25.48 136.598 22.8072 136.6 21.6 136.6V137.6V138.6C22.7928 138.6 25.62 138.602 28.1611 138.187C29.4224 137.981 30.7006 137.66 31.6893 137.132C32.6718 136.608 33.6 135.742 33.6 134.4H32.6ZM21.6 137.6V136.6H5V137.6V138.6H21.6V137.6ZM5 137.6L5.70711 136.893C5.53708 136.723 5.4 136.402 5.4 136H4.4H3.4C3.4 136.798 3.66292 137.677 4.29289 138.307L5 137.6ZM4.4 136H5.4C5.4 135.19 5.68903 134.35 6.21721 133.372C6.75518 132.377 7.45943 131.377 8.2403 130.167C9.76476 127.804 11.4 124.9 11.4 121H10.4H9.4C9.4 124.3 8.03524 126.796 6.5597 129.083C5.84057 130.198 5.04482 131.335 4.45779 132.421C3.86097 133.525 3.4 134.71 3.4 136H4.4ZM10.4 121H11.4C11.4 117.902 10.8836 114.869 10.3859 111.933C9.88358 108.969 9.4 106.102 9.4 103.2H8.4H7.4C7.4 106.298 7.91642 109.331 8.41406 112.267C8.91642 115.231 9.4 118.098 9.4 121H10.4ZM8.4 103.2H9.4C9.4 96.8646 10.1427 90.1216 10.8942 83.1827C11.6433 76.2656 12.4 69.1626 12.4 62.2H11.4H10.4C10.4 69.0374 9.65668 76.0344 8.90581 82.9673C8.15732 89.8784 7.4 96.7355 7.4 103.2H8.4ZM11.4 62.2H12.4C12.4 51.9355 11.3938 41.6684 9.3798 31.8L8.4 32L7.4202 32.2C9.40624 41.9316 10.4 52.0645 10.4 62.2H11.4ZM8.4 32L9.38995 31.8586C9.25773 30.933 8.76919 29.9938 8.18241 29.1334C7.58352 28.2553 6.81795 27.3676 6.02361 26.5348C4.43917 24.8737 2.64489 23.335 1.66896 22.4567L1 23.2L0.331035 23.9433C1.35511 24.865 3.06084 26.3263 4.57639 27.9152C5.33205 28.7074 6.01648 29.5072 6.53009 30.2603C7.05581 31.0312 7.34227 31.667 7.41005 32.1414L8.4 32ZM1 23.2H2V22.6H1H1.41561e-07V23.2H1ZM1 22.6H2C2 22.772 1.87911 22.7333 2.18913 22.5299C2.46377 22.3497 2.89076 22.1701 3.42207 22.0049C4.48107 21.6754 5.64272 21.4913 6.19611 21.3806L6 20.4L5.80389 19.4194C5.35728 19.5087 4.01893 19.7246 2.82793 20.0951C2.23424 20.2798 1.59873 20.5253 1.09212 20.8576C0.620894 21.1667 1.41561e-07 21.728 1.41561e-07 22.6H1ZM6 20.4L6.24254 21.3701C15.9555 18.9419 25.1622 15.8 34.8 15.8V14.8V13.8C24.8378 13.8 15.2445 17.0581 5.75746 19.4299L6 20.4ZM34.8 14.8L34.2188 15.6137L35.6188 16.6137L36.2 15.8L36.7812 14.9863L35.3812 13.9863L34.8 14.8ZM36.2 15.8H35.2C35.2 22.2351 35.5715 24.2569 36.5402 25.7256C36.768 26.0709 37.0227 26.3761 37.2508 26.6562C37.4859 26.9447 37.7246 27.2436 37.9831 27.6321C38.4965 28.4036 39.1243 29.5838 39.8535 31.7227L40.8 31.4L41.7465 31.0773C40.9757 28.8162 40.2785 27.4714 39.6481 26.5241C39.3348 26.0532 39.0469 25.6943 38.8015 25.393C38.5492 25.0833 38.3695 24.8666 38.2098 24.6244C37.6285 23.7431 37.2 22.3649 37.2 15.8H36.2ZM40.8 31.4L39.8576 31.7344C40.9863 34.9153 42.2968 38.1528 43.4527 41.5704C44.5938 44.9439 45.5147 48.3069 45.8041 51.4905L46.8 51.4L47.7959 51.3095C47.4853 47.8931 46.5062 44.3561 45.3473 40.9296C44.2032 37.5472 42.8137 34.0847 41.7424 31.0656L40.8 31.4ZM46.8 51.4L45.8014 51.4526C45.9978 55.1838 45.9975 58.7549 47.2513 62.5162L48.2 62.2L49.1487 61.8838C48.0025 58.4451 48.0022 55.2162 47.7986 51.3474L46.8 51.4ZM48.2 62.2L47.2583 62.5363C47.7601 63.9416 48.3821 65.4498 48.915 66.8547C49.4606 68.2929 49.9385 69.6857 50.2222 71.0095L51.2 70.8L52.1778 70.5905C51.8615 69.1143 51.3394 67.6071 50.785 66.1453C50.2179 64.6502 49.6399 63.2584 49.1417 61.8637L48.2 62.2ZM51.2 70.8L50.2136 70.9644C50.9131 75.1615 51.8169 80.5852 52.973 85.888C54.1257 91.1758 55.5439 96.4142 57.2913 100.218L58.2 99.8L59.1087 99.3825C57.4561 95.7858 56.0743 90.7242 54.9271 85.462C53.7831 80.2148 52.8869 74.8385 52.1864 70.6356L51.2 70.8ZM58.2 99.8H59.2V96H58.2H57.2V99.8H58.2ZM58.2 96H59.2C59.2 89.5539 58.6964 83.2146 58.1969 76.9209C57.6964 70.6146 57.2 64.3539 57.2 58H56.2H55.2C55.2 64.4461 55.7036 70.7854 56.2031 77.0791C56.7036 83.3854 57.2 89.6461 57.2 96H58.2ZM56.2 58H57.2C57.2 56.5909 56.9297 55.149 56.6827 53.8396C56.4277 52.4882 56.2 51.2875 56.2 50.2H55.2H54.2C54.2 51.5125 54.4723 52.9118 54.7173 54.2104C54.9703 55.551 55.2 56.8091 55.2 58H56.2ZM55.2 50.2H56.2V35.8H55.2H54.2V50.2H55.2ZM55.2 35.8H56.2C56.2 33.5422 55.6082 31.4134 55.0633 29.4567C54.5055 27.4537 54 25.6388 54 23.8H53H52C52 25.9612 52.5945 28.0463 53.1367 29.9933C53.6918 31.9866 54.2 33.8578 54.2 35.8H55.2ZM53 23.8H54C54 22.6721 54.3491 21.4669 54.7588 20.0841C55.1491 18.7669 55.6 17.2721 55.6 15.8H54.6H53.6C53.6 16.9279 53.2509 18.1331 52.8412 19.5159C52.4509 20.8331 52 22.3279 52 23.8H53ZM54.6 15.8H55.6C55.6 14.2557 54.8801 13.044 53.9381 12.0772C53.0155 11.1302 51.8109 10.3479 50.7076 9.65361C49.5589 8.93083 48.5282 8.30734 47.7509 7.62396C46.9809 6.94701 46.629 6.35428 46.5988 5.75006L45.6 5.8L44.6012 5.84993C44.671 7.24572 45.4942 8.30299 46.4304 9.12604C47.3593 9.94266 48.5662 10.6692 49.6424 11.3464C50.7641 12.0521 51.772 12.7198 52.5056 13.4728C53.2199 14.206 53.6 14.9443 53.6 15.8H54.6ZM45.6 5.8L46.5104 6.2138C46.4783 6.28441 46.4626 6.26432 46.5819 6.1709C46.6903 6.08602 46.8605 5.97919 47.1064 5.85566C47.5977 5.60878 48.2892 5.34547 49.1468 5.07584C50.8554 4.53866 53.0959 4.01565 55.4191 3.55598C60.0964 2.63053 64.909 2 66.2 2V0.999999V-1.43051e-06C64.691 -1.43051e-06 59.7036 0.669472 55.0309 1.59402C52.6791 2.05935 50.3571 2.59884 48.547 3.16791C47.6452 3.45141 46.8382 3.75215 46.2085 4.06855C45.8938 4.22667 45.5978 4.40128 45.3489 4.59619C45.1109 4.78255 44.8467 5.04058 44.6896 5.38619L45.6 5.8Z" fill="black" mask="url(#path-1-outside-1_1_2)"/>
<defs>
<filter id="filter0_i_1_2" x="0" y="0" width="76.6323" height="158.884" filterUnits="userSpaceOnUse" color-interpolation-filters="sRGB">
<feFlood flood-opacity="0" result="BackgroundImageFix"/>
<feBlend mode="normal" in="SourceGraphic" in2="BackgroundImageFix" result="shape"/>
<feColorMatrix in="SourceAlpha" type="matrix" values="0 0 0 0 0 0 0 0 0 0 0 0 0 0 0 0 0 0 127 0" result="hardAlpha"/>
<feOffset dy="9"/>
<feGaussianBlur stdDeviation="2"/>
<feComposite in2="hardAlpha" operator="arithmetic" k2="-1" k3="1"/>
<feColorMatrix type="matrix" values="0 0 0 0 0.0673077 0 0 0 0 0 0 0 0 0 0 0 0 0 0.65 0"/>
<feBlend mode="multiply" in2="shape" result="effect1_innerShadow_1_2"/>
</filter>
</defs>
</svg>
